<?xml version="1.0" encoding="iso-8859-1"?>
<!-- Generator: Adobe Illustrator 19.0.0, SVG Export Plug-In . SVG Version: 6.00 Build 0)  -->
<svg version="1.1" id="&#x56FE;&#x5C42;_1" xmlns="http://www.w3.org/2000/svg" xmlns:xlink="http://www.w3.org/1999/xlink" x="0px"
	 y="0px" viewBox="0 0 55 55" style="enable-background:new 0 0 55 55;" xml:space="preserve">
<g id="XMLID_4_">
	<g id="XMLID_5_">
		<defs>
			<rect id="XMLID_6_" x="10" y="9.469" width="35" height="36.062"/>
		</defs>
		<clipPath id="XMLID_2_">
			<use xlink:href="#XMLID_6_"  style="overflow:visible;"/>
		</clipPath>
		<path id="XMLID_7_" style="clip-path:url(#XMLID_2_);fill:#7F91A5;" d="M40.854,29.249c0.072-0.576,0.126-1.16,0.126-1.754
			c0-0.593-0.054-1.178-0.126-1.754l3.804-2.977c0.342-0.27,0.441-0.756,0.216-1.151l-3.597-6.232
			c-0.225-0.387-0.692-0.549-1.097-0.387l-4.479,1.808c-0.926-0.71-1.943-1.313-3.04-1.772l-0.674-4.767
			c-0.081-0.423-0.45-0.755-0.899-0.755h-7.195c-0.45,0-0.818,0.333-0.89,0.755l-0.674,4.767c-1.097,0.458-2.113,1.052-3.04,1.772
			l-4.479-1.808c-0.405-0.153-0.872,0-1.097,0.387l-3.597,6.232c-0.225,0.387-0.126,0.873,0.216,1.151l3.795,2.977
			C14.054,26.318,14,26.902,14,27.496c0,0.593,0.054,1.178,0.126,1.754l-3.795,2.977c-0.342,0.27-0.441,0.755-0.216,1.151
			l3.597,6.232c0.225,0.387,0.692,0.549,1.097,0.387l4.479-1.808c0.926,0.711,1.943,1.313,3.04,1.772l0.674,4.767
			c0.072,0.423,0.441,0.755,0.89,0.755h7.195c0.45,0,0.818-0.333,0.89-0.755l0.675-4.767c1.097-0.458,2.113-1.052,3.04-1.772
			l4.479,1.808c0.405,0.153,0.872,0,1.097-0.387l3.597-6.232c0.225-0.387,0.126-0.872-0.216-1.151L40.854,29.249z M27.49,33.791
			c-3.48,0-6.295-2.815-6.295-6.295c0-3.481,2.815-6.295,6.295-6.295c3.481,0,6.296,2.815,6.296,6.295
			C33.785,30.976,30.97,33.791,27.49,33.791L27.49,33.791z M27.49,33.791"/>
	</g>
</g>
</svg>
