<?xml version="1.0" encoding="iso-8859-1"?>
<!-- Generator: Adobe Illustrator 19.0.0, SVG Export Plug-In . SVG Version: 6.00 Build 0)  -->
<svg version="1.1" id="&#x56FE;&#x5C42;_1" xmlns="http://www.w3.org/2000/svg" xmlns:xlink="http://www.w3.org/1999/xlink" x="0px"
	 y="0px" viewBox="0 0 55 55" style="enable-background:new 0 0 55 55;" xml:space="preserve">
<g id="XMLID_16_">
	<linearGradient id="XMLID_2_" gradientUnits="userSpaceOnUse" x1="27.5" y1="43.6875" x2="27.5" y2="10.415">
		<stop  offset="0" style="stop-color:#818181"/>
		<stop  offset="1" style="stop-color:#5D5D5D"/>
	</linearGradient>
	<path id="XMLID_1029_" style="fill:url(#XMLID_2_);" d="M42.253,10.25H13.837c-2.232,0-4.042,1.81-4.042,4.042v26.417
		c0,2.232,1.81,4.042,4.042,4.042h28.417c2.232,0,4.042-1.81,4.042-4.042V14.292C46.295,12.06,44.486,10.25,42.253,10.25z
		 M1.417,20.254v13.584c0,2.398,1.951,4.35,4.35,4.35h1.858v-2H5.767c-1.296,0-2.35-1.054-2.35-2.35V20.254
		c0-1.296,1.054-2.35,2.35-2.35h1.858v-2H5.767C3.368,15.904,1.417,17.855,1.417,20.254z M49.233,15.904h-1.608v2h1.608
		c1.296,0,2.35,1.054,2.35,2.35v13.584c0,1.296-1.054,2.35-2.35,2.35h-1.608v2h1.608c2.398,0,4.35-1.951,4.35-4.35V20.254
		C53.583,17.855,51.632,15.904,49.233,15.904z"/>
	<polygon id="XMLID_35_" style="fill:#FFFFFF;" points="13.087,30.188 13.087,41.438 43.003,41.438 43.003,33.938 33.087,24.021 
		20.837,36.271 	"/>
	<circle id="XMLID_34_" style="fill:#FFFFFF;" cx="20.045" cy="20.112" r="3.208"/>
	<path id="XMLID_1022_" style="fill:none;stroke:#333333;stroke-width:2;stroke-miterlimit:10;" d="M7.625,37.188"/>
	<path id="XMLID_19_" style="fill:none;stroke:#333333;stroke-width:2;stroke-miterlimit:10;" d="M47.625,37.188"/>
	<path id="XMLID_1020_" style="fill:none;stroke:#333333;stroke-width:2;stroke-miterlimit:10;" d="M47.625,16.904"/>
	<path id="XMLID_36_" style="fill:none;stroke:#333333;stroke-width:2;stroke-miterlimit:10;" d="M7.625,16.904"/>
</g>
</svg>
