<?xml version="1.0" encoding="iso-8859-1"?>
<!-- Generator: Adobe Illustrator 19.0.0, SVG Export Plug-In . SVG Version: 6.00 Build 0)  -->
<svg version="1.1" id="&#x56FE;&#x5C42;_1" xmlns="http://www.w3.org/2000/svg" xmlns:xlink="http://www.w3.org/1999/xlink" x="0px"
	 y="0px" viewBox="0 0 55 55" style="enable-background:new 0 0 55 55;" xml:space="preserve">
<g id="XMLID_2_">
	<linearGradient id="XMLID_4_" gradientUnits="userSpaceOnUse" x1="27.5" y1="45.4937" x2="27.5" y2="8.3722">
		<stop  offset="0" style="stop-color:#818181"/>
		<stop  offset="1" style="stop-color:#5D5D5D"/>
	</linearGradient>
	<path id="XMLID_37_" style="fill:url(#XMLID_4_);" d="M13.29,38.619h28.42c2.231,0,4.04-1.809,4.04-4.04V12.596
		c0-2.231-1.809-4.04-4.04-4.04H13.29c-2.231,0-4.04,1.809-4.04,4.04v21.982C9.25,36.81,11.059,38.619,13.29,38.619z M47.271,31.832
		v2.113c2.809,1.142,4.396,2.474,4.396,3.749c0,3.192-9.925,6.75-24.166,6.75c-14.242,0-24.167-3.558-24.167-6.75
		c0-1.131,1.415-2.394,3.875-3.489v-2.171c-0.162,0.065-0.329,0.128-0.485,0.194c-4.455,1.892-5.39,4.017-5.39,5.466
		c0,5.684,13.481,8.75,26.167,8.75c12.685,0,26.166-3.066,26.166-8.75C53.666,35.24,51.149,33.274,47.271,31.832z"/>
	<circle id="XMLID_1031_" style="fill:#FFFFFF;" cx="19.212" cy="16.794" r="3.208"/>
	<polygon id="XMLID_1019_" style="fill:#FFFFFF;" points="12.333,26.619 12.333,35.619 42.458,35.619 42.458,29.869 32.208,23.244 
		20.333,31.035 	"/>
</g>
</svg>
