<?xml version="1.0" encoding="iso-8859-1"?>
<!-- Generator: Adobe Illustrator 19.0.0, SVG Export Plug-In . SVG Version: 6.00 Build 0)  -->
<svg version="1.1" id="&#x56FE;&#x5C42;_1" xmlns="http://www.w3.org/2000/svg" xmlns:xlink="http://www.w3.org/1999/xlink" x="0px"
	 y="0px" viewBox="0 0 55 55" style="enable-background:new 0 0 55 55;" xml:space="preserve">
<g id="XMLID_1_">
	<polygon id="XMLID_1996_" style="fill:#FFFFFF;" points="18.944,20.222 18.944,26.097 21.006,26.097 21.006,23.16 26.861,23.16 
		26.861,35.056 23.861,35.056 23.861,38.139 31.861,38.139 31.861,35.056 28.861,35.056 28.861,23.16 35.006,23.16 35.006,26.097 
		36.944,26.097 36.944,20.222 	"/>
	<linearGradient id="XMLID_4_" gradientUnits="userSpaceOnUse" x1="27.5" y1="44.1391" x2="27.5" y2="10.8058">
		<stop  offset="0" style="stop-color:#818181"/>
		<stop  offset="1" style="stop-color:#5D5D5D"/>
	</linearGradient>
	<path id="XMLID_1046_" style="fill:url(#XMLID_4_);" d="M41.708,44.75H13.292c-2.232,0-4.042-1.81-4.042-4.042V14.292
		c0-2.232,1.81-4.042,4.042-4.042h28.417c2.232,0,4.042,1.81,4.042,4.042v26.417C45.75,42.94,43.94,44.75,41.708,44.75z"/>
	<polygon id="XMLID_1033_" style="fill:#FFFFFF;" points="18.5,20.222 18.5,26.097 20.562,26.097 20.562,23.16 26.417,23.16 
		26.417,35.056 23.417,35.056 23.417,38.139 31.417,38.139 31.417,35.056 28.417,35.056 28.417,23.16 34.562,23.16 34.562,26.097 
		36.5,26.097 36.5,20.222 	"/>
</g>
</svg>
