<?xml version="1.0" encoding="iso-8859-1"?>
<!-- Generator: Adobe Illustrator 19.0.0, SVG Export Plug-In . SVG Version: 6.00 Build 0)  -->
<svg version="1.1" id="&#x56FE;&#x5C42;_1" xmlns="http://www.w3.org/2000/svg" xmlns:xlink="http://www.w3.org/1999/xlink" x="0px"
	 y="0px" viewBox="0 0 55 55" style="enable-background:new 0 0 55 55;" xml:space="preserve">
<path id="XMLID_1048_" d="M19.531,25.438c-1.139,0-2.063,0.923-2.063,2.063s0.923,2.063,2.063,2.063s2.063-0.923,2.063-2.063
	S20.67,25.438,19.531,25.438z M35.469,25.438c-1.139,0-2.063,0.923-2.063,2.063s0.923,2.063,2.063,2.063s2.063-0.923,2.063-2.063
	S36.608,25.438,35.469,25.438z M27.469,24.438c-1.691,0-3.063,1.371-3.063,3.063s1.371,3.063,3.063,3.063s3.063-1.371,3.063-3.063
	S29.16,24.438,27.469,24.438z"/>
</svg>
