<?xml version="1.0" encoding="iso-8859-1"?>
<!-- Generator: Adobe Illustrator 19.0.0, SVG Export Plug-In . SVG Version: 6.00 Build 0)  -->
<svg version="1.1" id="&#x56FE;&#x5C42;_1" xmlns="http://www.w3.org/2000/svg" xmlns:xlink="http://www.w3.org/1999/xlink" x="0px"
	 y="0px" viewBox="0 0 55 55" style="enable-background:new 0 0 55 55;" xml:space="preserve">
<path id="XMLID_2006_" d="M27.5,23.917c-1.979,0-3.583,1.604-3.583,3.583s1.604,3.583,3.583,3.583c1.979,0,3.583-1.604,3.583-3.583
	S29.479,23.917,27.5,23.917z M27.5,17.667c-5.423,0-9.834,4.411-9.834,9.833c0,5.423,4.411,9.834,9.834,9.834
	c5.422,0,9.833-4.411,9.833-9.834C37.333,22.078,32.922,17.667,27.5,17.667z M27.5,35.333c-4.319,0-7.834-3.515-7.834-7.834
	s3.515-7.833,7.834-7.833s7.833,3.514,7.833,7.833S31.82,35.333,27.5,35.333z"/>
</svg>
